<mxfile host="Electron" agent="Mozilla/5.0 (Windows NT 10.0; Win64; x64) AppleWebKit/537.36 (KHTML, like Gecko) draw.io/24.7.17 Chrome/128.0.6613.36 Electron/32.0.1 Safari/537.36" version="24.7.17">
  <diagram name="Page-1" id="F3nNIBb2NQYHFKJPvgiU">
    <mxGraphModel dx="1969" dy="984" grid="1" gridSize="10" guides="1" tooltips="1" connect="1" arrows="1" fold="1" page="1" pageScale="1" pageWidth="850" pageHeight="1100" math="0" shadow="0">
      <root>
        <mxCell id="0" />
        <mxCell id="1" parent="0" />
        <mxCell id="9306NAeqGHNyqq7dqVHE-3" value="" style="edgeStyle=orthogonalEdgeStyle;rounded=0;orthogonalLoop=1;jettySize=auto;html=1;" parent="1" source="9306NAeqGHNyqq7dqVHE-1" target="9306NAeqGHNyqq7dqVHE-2" edge="1">
          <mxGeometry relative="1" as="geometry" />
        </mxCell>
        <mxCell id="9306NAeqGHNyqq7dqVHE-1" value="Start" style="ellipse;whiteSpace=wrap;html=1;" parent="1" vertex="1">
          <mxGeometry x="200" y="40" width="120" height="80" as="geometry" />
        </mxCell>
        <mxCell id="9306NAeqGHNyqq7dqVHE-5" value="" style="edgeStyle=orthogonalEdgeStyle;rounded=0;orthogonalLoop=1;jettySize=auto;html=1;" parent="1" source="9306NAeqGHNyqq7dqVHE-2" target="9306NAeqGHNyqq7dqVHE-4" edge="1">
          <mxGeometry relative="1" as="geometry" />
        </mxCell>
        <mxCell id="9306NAeqGHNyqq7dqVHE-2" value="output&lt;div&gt;1.Buat akun baru&lt;br&gt;&lt;div&gt;2.Masuk sebagai admin&lt;/div&gt;&lt;div&gt;3.Masuk sebagai user&lt;/div&gt;&lt;div&gt;0.Keluar&lt;/div&gt;&lt;/div&gt;" style="shape=parallelogram;perimeter=parallelogramPerimeter;whiteSpace=wrap;html=1;fixedSize=1;" parent="1" vertex="1">
          <mxGeometry x="190" y="150" width="140" height="80" as="geometry" />
        </mxCell>
        <mxCell id="w00eylqivsFtThTXuI4Y-4" value="" style="edgeStyle=orthogonalEdgeStyle;rounded=0;orthogonalLoop=1;jettySize=auto;html=1;" parent="1" source="9306NAeqGHNyqq7dqVHE-4" target="w00eylqivsFtThTXuI4Y-1" edge="1">
          <mxGeometry relative="1" as="geometry" />
        </mxCell>
        <mxCell id="9306NAeqGHNyqq7dqVHE-4" value="input pilihan" style="shape=parallelogram;perimeter=parallelogramPerimeter;whiteSpace=wrap;html=1;fixedSize=1;" parent="1" vertex="1">
          <mxGeometry x="195" y="270" width="130" height="60" as="geometry" />
        </mxCell>
        <mxCell id="9306NAeqGHNyqq7dqVHE-12" value="" style="edgeStyle=orthogonalEdgeStyle;rounded=0;orthogonalLoop=1;jettySize=auto;html=1;" parent="1" source="9306NAeqGHNyqq7dqVHE-6" target="9306NAeqGHNyqq7dqVHE-11" edge="1">
          <mxGeometry relative="1" as="geometry" />
        </mxCell>
        <mxCell id="9306NAeqGHNyqq7dqVHE-18" value="False" style="edgeLabel;html=1;align=center;verticalAlign=middle;resizable=0;points=[];" parent="9306NAeqGHNyqq7dqVHE-12" vertex="1" connectable="0">
          <mxGeometry x="-0.075" y="-1" relative="1" as="geometry">
            <mxPoint as="offset" />
          </mxGeometry>
        </mxCell>
        <mxCell id="w00eylqivsFtThTXuI4Y-34" value="" style="edgeStyle=orthogonalEdgeStyle;rounded=0;orthogonalLoop=1;jettySize=auto;html=1;" parent="1" source="9306NAeqGHNyqq7dqVHE-6" target="w00eylqivsFtThTXuI4Y-33" edge="1">
          <mxGeometry relative="1" as="geometry" />
        </mxCell>
        <mxCell id="w00eylqivsFtThTXuI4Y-35" value="True" style="edgeLabel;html=1;align=center;verticalAlign=middle;resizable=0;points=[];" parent="w00eylqivsFtThTXuI4Y-34" vertex="1" connectable="0">
          <mxGeometry x="-0.3238" y="-1" relative="1" as="geometry">
            <mxPoint as="offset" />
          </mxGeometry>
        </mxCell>
        <mxCell id="9306NAeqGHNyqq7dqVHE-6" value="Pilihan 2" style="rhombus;whiteSpace=wrap;html=1;" parent="1" vertex="1">
          <mxGeometry x="220" y="491" width="80" height="70" as="geometry" />
        </mxCell>
        <mxCell id="9306NAeqGHNyqq7dqVHE-30" value="" style="edgeStyle=orthogonalEdgeStyle;rounded=0;orthogonalLoop=1;jettySize=auto;html=1;" parent="1" source="9306NAeqGHNyqq7dqVHE-8" target="9306NAeqGHNyqq7dqVHE-29" edge="1">
          <mxGeometry relative="1" as="geometry" />
        </mxCell>
        <mxCell id="9306NAeqGHNyqq7dqVHE-8" value="Masuk sebagai&amp;nbsp;&lt;div&gt;admin&lt;/div&gt;" style="shape=process;whiteSpace=wrap;html=1;backgroundOutline=1;" parent="1" vertex="1">
          <mxGeometry x="820" y="730" width="120" height="60" as="geometry" />
        </mxCell>
        <mxCell id="9306NAeqGHNyqq7dqVHE-14" value="" style="edgeStyle=orthogonalEdgeStyle;rounded=0;orthogonalLoop=1;jettySize=auto;html=1;" parent="1" source="9306NAeqGHNyqq7dqVHE-11" target="9306NAeqGHNyqq7dqVHE-13" edge="1">
          <mxGeometry relative="1" as="geometry" />
        </mxCell>
        <mxCell id="9306NAeqGHNyqq7dqVHE-19" value="False" style="edgeLabel;html=1;align=center;verticalAlign=middle;resizable=0;points=[];" parent="9306NAeqGHNyqq7dqVHE-14" vertex="1" connectable="0">
          <mxGeometry x="-0.1" relative="1" as="geometry">
            <mxPoint as="offset" />
          </mxGeometry>
        </mxCell>
        <mxCell id="w00eylqivsFtThTXuI4Y-70" value="" style="edgeStyle=orthogonalEdgeStyle;rounded=0;orthogonalLoop=1;jettySize=auto;html=1;" parent="1" source="9306NAeqGHNyqq7dqVHE-11" target="w00eylqivsFtThTXuI4Y-56" edge="1">
          <mxGeometry relative="1" as="geometry" />
        </mxCell>
        <mxCell id="9306NAeqGHNyqq7dqVHE-11" value="Pilihan 3" style="rhombus;whiteSpace=wrap;html=1;" parent="1" vertex="1">
          <mxGeometry x="220" y="920" width="80" height="70" as="geometry" />
        </mxCell>
        <mxCell id="9306NAeqGHNyqq7dqVHE-21" value="" style="edgeStyle=orthogonalEdgeStyle;rounded=0;orthogonalLoop=1;jettySize=auto;html=1;" parent="1" source="9306NAeqGHNyqq7dqVHE-13" target="9306NAeqGHNyqq7dqVHE-20" edge="1">
          <mxGeometry relative="1" as="geometry" />
        </mxCell>
        <mxCell id="9306NAeqGHNyqq7dqVHE-22" value="True" style="edgeLabel;html=1;align=center;verticalAlign=middle;resizable=0;points=[];" parent="9306NAeqGHNyqq7dqVHE-21" vertex="1" connectable="0">
          <mxGeometry x="0.1143" y="-1" relative="1" as="geometry">
            <mxPoint as="offset" />
          </mxGeometry>
        </mxCell>
        <mxCell id="9306NAeqGHNyqq7dqVHE-24" value="" style="edgeStyle=orthogonalEdgeStyle;rounded=0;orthogonalLoop=1;jettySize=auto;html=1;" parent="1" source="9306NAeqGHNyqq7dqVHE-13" target="9306NAeqGHNyqq7dqVHE-23" edge="1">
          <mxGeometry relative="1" as="geometry" />
        </mxCell>
        <mxCell id="9306NAeqGHNyqq7dqVHE-84" value="False" style="edgeLabel;html=1;align=center;verticalAlign=middle;resizable=0;points=[];" parent="9306NAeqGHNyqq7dqVHE-24" vertex="1" connectable="0">
          <mxGeometry x="-0.1537" y="1" relative="1" as="geometry">
            <mxPoint as="offset" />
          </mxGeometry>
        </mxCell>
        <mxCell id="9306NAeqGHNyqq7dqVHE-13" value="Pilihan 0" style="rhombus;whiteSpace=wrap;html=1;" parent="1" vertex="1">
          <mxGeometry x="220" y="1290" width="80" height="70" as="geometry" />
        </mxCell>
        <mxCell id="9306NAeqGHNyqq7dqVHE-32" value="" style="edgeStyle=orthogonalEdgeStyle;rounded=0;orthogonalLoop=1;jettySize=auto;html=1;" parent="1" source="9306NAeqGHNyqq7dqVHE-15" target="9306NAeqGHNyqq7dqVHE-31" edge="1">
          <mxGeometry relative="1" as="geometry" />
        </mxCell>
        <mxCell id="9306NAeqGHNyqq7dqVHE-15" value="Masuk sebagai&lt;div&gt;user&lt;/div&gt;" style="shape=process;whiteSpace=wrap;html=1;backgroundOutline=1;" parent="1" vertex="1">
          <mxGeometry x="830" y="1160" width="120" height="60" as="geometry" />
        </mxCell>
        <mxCell id="9306NAeqGHNyqq7dqVHE-86" value="" style="edgeStyle=orthogonalEdgeStyle;rounded=0;orthogonalLoop=1;jettySize=auto;html=1;" parent="1" source="9306NAeqGHNyqq7dqVHE-20" target="9306NAeqGHNyqq7dqVHE-85" edge="1">
          <mxGeometry relative="1" as="geometry" />
        </mxCell>
        <mxCell id="9306NAeqGHNyqq7dqVHE-20" value="output&lt;div&gt;Program berhenti&lt;/div&gt;" style="shape=parallelogram;perimeter=parallelogramPerimeter;whiteSpace=wrap;html=1;fixedSize=1;" parent="1" vertex="1">
          <mxGeometry x="200" y="1460" width="120" height="60" as="geometry" />
        </mxCell>
        <mxCell id="9306NAeqGHNyqq7dqVHE-26" value="" style="edgeStyle=orthogonalEdgeStyle;rounded=0;orthogonalLoop=1;jettySize=auto;html=1;" parent="1" source="9306NAeqGHNyqq7dqVHE-23" target="9306NAeqGHNyqq7dqVHE-25" edge="1">
          <mxGeometry relative="1" as="geometry" />
        </mxCell>
        <mxCell id="9306NAeqGHNyqq7dqVHE-23" value="output&lt;div&gt;Pilihan tidak&amp;nbsp;&lt;/div&gt;&lt;div&gt;valid&lt;/div&gt;" style="shape=parallelogram;perimeter=parallelogramPerimeter;whiteSpace=wrap;html=1;fixedSize=1;" parent="1" vertex="1">
          <mxGeometry x="360" y="1295" width="120" height="60" as="geometry" />
        </mxCell>
        <mxCell id="9306NAeqGHNyqq7dqVHE-25" value="" style="ellipse;whiteSpace=wrap;html=1;fillColor=#f8cecc;strokeColor=#b85450;" parent="1" vertex="1">
          <mxGeometry x="510" y="1300" width="50" height="50" as="geometry" />
        </mxCell>
        <mxCell id="9306NAeqGHNyqq7dqVHE-28" value="" style="edgeStyle=orthogonalEdgeStyle;rounded=0;orthogonalLoop=1;jettySize=auto;html=1;" parent="1" source="9306NAeqGHNyqq7dqVHE-27" target="9306NAeqGHNyqq7dqVHE-2" edge="1">
          <mxGeometry relative="1" as="geometry">
            <Array as="points">
              <mxPoint x="150" y="190" />
            </Array>
          </mxGeometry>
        </mxCell>
        <mxCell id="9306NAeqGHNyqq7dqVHE-27" value="" style="ellipse;whiteSpace=wrap;html=1;fillColor=#f8cecc;strokeColor=#b85450;" parent="1" vertex="1">
          <mxGeometry x="120" y="110" width="50" height="50" as="geometry" />
        </mxCell>
        <mxCell id="9306NAeqGHNyqq7dqVHE-29" value="2" style="ellipse;whiteSpace=wrap;html=1;fillColor=#fff2cc;strokeColor=#d6b656;" parent="1" vertex="1">
          <mxGeometry x="980" y="736" width="50" height="50" as="geometry" />
        </mxCell>
        <mxCell id="9306NAeqGHNyqq7dqVHE-31" value="3" style="ellipse;whiteSpace=wrap;html=1;fillColor=#dae8fc;strokeColor=#6c8ebf;" parent="1" vertex="1">
          <mxGeometry x="990" y="1165" width="50" height="50" as="geometry" />
        </mxCell>
        <mxCell id="9306NAeqGHNyqq7dqVHE-35" value="" style="edgeStyle=orthogonalEdgeStyle;rounded=0;orthogonalLoop=1;jettySize=auto;html=1;" parent="1" source="9306NAeqGHNyqq7dqVHE-33" target="9306NAeqGHNyqq7dqVHE-34" edge="1">
          <mxGeometry relative="1" as="geometry" />
        </mxCell>
        <mxCell id="9306NAeqGHNyqq7dqVHE-33" value="2" style="ellipse;whiteSpace=wrap;html=1;fillColor=#fff2cc;strokeColor=#d6b656;" parent="1" vertex="1">
          <mxGeometry x="1900" y="375" width="50" height="50" as="geometry" />
        </mxCell>
        <mxCell id="9306NAeqGHNyqq7dqVHE-42" value="" style="edgeStyle=orthogonalEdgeStyle;rounded=0;orthogonalLoop=1;jettySize=auto;html=1;" parent="1" source="9306NAeqGHNyqq7dqVHE-34" target="9306NAeqGHNyqq7dqVHE-41" edge="1">
          <mxGeometry relative="1" as="geometry" />
        </mxCell>
        <mxCell id="9306NAeqGHNyqq7dqVHE-34" value="&lt;div&gt;output&lt;/div&gt;&lt;div&gt;1. Tambah Kamar&lt;/div&gt;&lt;div&gt;2. Lihat Kamar&lt;/div&gt;&lt;div&gt;3. Ubah Kamar&lt;/div&gt;&lt;div&gt;4. Lihat kamar terbooking&lt;/div&gt;&lt;div&gt;0. Keluar&lt;/div&gt;" style="shape=parallelogram;perimeter=parallelogramPerimeter;whiteSpace=wrap;html=1;fixedSize=1;" parent="1" vertex="1">
          <mxGeometry x="1840" y="455" width="170" height="120" as="geometry" />
        </mxCell>
        <mxCell id="9306NAeqGHNyqq7dqVHE-44" value="" style="edgeStyle=orthogonalEdgeStyle;rounded=0;orthogonalLoop=1;jettySize=auto;html=1;" parent="1" source="9306NAeqGHNyqq7dqVHE-41" target="9306NAeqGHNyqq7dqVHE-43" edge="1">
          <mxGeometry relative="1" as="geometry" />
        </mxCell>
        <mxCell id="9306NAeqGHNyqq7dqVHE-41" value="input pilihan" style="shape=parallelogram;perimeter=parallelogramPerimeter;whiteSpace=wrap;html=1;fixedSize=1;" parent="1" vertex="1">
          <mxGeometry x="1865" y="640" width="120" height="60" as="geometry" />
        </mxCell>
        <mxCell id="9306NAeqGHNyqq7dqVHE-46" value="" style="edgeStyle=orthogonalEdgeStyle;rounded=0;orthogonalLoop=1;jettySize=auto;html=1;" parent="1" source="9306NAeqGHNyqq7dqVHE-43" target="9306NAeqGHNyqq7dqVHE-45" edge="1">
          <mxGeometry relative="1" as="geometry" />
        </mxCell>
        <mxCell id="9306NAeqGHNyqq7dqVHE-76" value="False" style="edgeLabel;html=1;align=center;verticalAlign=middle;resizable=0;points=[];" parent="9306NAeqGHNyqq7dqVHE-46" vertex="1" connectable="0">
          <mxGeometry x="-0.175" y="1" relative="1" as="geometry">
            <mxPoint as="offset" />
          </mxGeometry>
        </mxCell>
        <mxCell id="9306NAeqGHNyqq7dqVHE-58" value="" style="edgeStyle=orthogonalEdgeStyle;rounded=0;orthogonalLoop=1;jettySize=auto;html=1;" parent="1" source="9306NAeqGHNyqq7dqVHE-43" target="9306NAeqGHNyqq7dqVHE-57" edge="1">
          <mxGeometry relative="1" as="geometry" />
        </mxCell>
        <mxCell id="9306NAeqGHNyqq7dqVHE-75" value="True" style="edgeLabel;html=1;align=center;verticalAlign=middle;resizable=0;points=[];" parent="9306NAeqGHNyqq7dqVHE-58" vertex="1" connectable="0">
          <mxGeometry x="-0.0435" y="-1" relative="1" as="geometry">
            <mxPoint as="offset" />
          </mxGeometry>
        </mxCell>
        <mxCell id="9306NAeqGHNyqq7dqVHE-43" value="pilihan 1" style="rhombus;whiteSpace=wrap;html=1;" parent="1" vertex="1">
          <mxGeometry x="1885" y="745" width="80" height="80" as="geometry" />
        </mxCell>
        <mxCell id="9306NAeqGHNyqq7dqVHE-48" value="" style="edgeStyle=orthogonalEdgeStyle;rounded=0;orthogonalLoop=1;jettySize=auto;html=1;exitX=0.5;exitY=1;exitDx=0;exitDy=0;" parent="1" source="9306NAeqGHNyqq7dqVHE-45" target="9306NAeqGHNyqq7dqVHE-47" edge="1">
          <mxGeometry relative="1" as="geometry">
            <mxPoint x="1925" y="1410" as="sourcePoint" />
          </mxGeometry>
        </mxCell>
        <mxCell id="9306NAeqGHNyqq7dqVHE-107" value="False" style="edgeLabel;html=1;align=center;verticalAlign=middle;resizable=0;points=[];" parent="9306NAeqGHNyqq7dqVHE-48" vertex="1" connectable="0">
          <mxGeometry x="-0.0745" y="-1" relative="1" as="geometry">
            <mxPoint as="offset" />
          </mxGeometry>
        </mxCell>
        <mxCell id="CITxqDvbWVBlNtM9Zf33-5" value="" style="edgeStyle=orthogonalEdgeStyle;rounded=0;orthogonalLoop=1;jettySize=auto;html=1;" parent="1" source="9306NAeqGHNyqq7dqVHE-45" target="CITxqDvbWVBlNtM9Zf33-4" edge="1">
          <mxGeometry relative="1" as="geometry" />
        </mxCell>
        <mxCell id="CITxqDvbWVBlNtM9Zf33-8" value="True" style="edgeLabel;html=1;align=center;verticalAlign=middle;resizable=0;points=[];" parent="CITxqDvbWVBlNtM9Zf33-5" vertex="1" connectable="0">
          <mxGeometry x="-0.1636" y="1" relative="1" as="geometry">
            <mxPoint as="offset" />
          </mxGeometry>
        </mxCell>
        <mxCell id="9306NAeqGHNyqq7dqVHE-45" value="pilihan 2" style="rhombus;whiteSpace=wrap;html=1;" parent="1" vertex="1">
          <mxGeometry x="1885" y="1050" width="80" height="80" as="geometry" />
        </mxCell>
        <mxCell id="9306NAeqGHNyqq7dqVHE-50" value="" style="edgeStyle=orthogonalEdgeStyle;rounded=0;orthogonalLoop=1;jettySize=auto;html=1;" parent="1" source="9306NAeqGHNyqq7dqVHE-47" edge="1">
          <mxGeometry relative="1" as="geometry">
            <mxPoint x="1925" y="1740" as="targetPoint" />
          </mxGeometry>
        </mxCell>
        <mxCell id="9306NAeqGHNyqq7dqVHE-108" value="False" style="edgeLabel;html=1;align=center;verticalAlign=middle;resizable=0;points=[];" parent="9306NAeqGHNyqq7dqVHE-50" vertex="1" connectable="0">
          <mxGeometry x="0.0646" relative="1" as="geometry">
            <mxPoint as="offset" />
          </mxGeometry>
        </mxCell>
        <mxCell id="9306NAeqGHNyqq7dqVHE-105" value="" style="edgeStyle=orthogonalEdgeStyle;rounded=0;orthogonalLoop=1;jettySize=auto;html=1;" parent="1" source="9306NAeqGHNyqq7dqVHE-47" target="9306NAeqGHNyqq7dqVHE-89" edge="1">
          <mxGeometry relative="1" as="geometry" />
        </mxCell>
        <mxCell id="9306NAeqGHNyqq7dqVHE-106" value="True" style="edgeLabel;html=1;align=center;verticalAlign=middle;resizable=0;points=[];" parent="9306NAeqGHNyqq7dqVHE-105" vertex="1" connectable="0">
          <mxGeometry x="-0.2381" y="1" relative="1" as="geometry">
            <mxPoint as="offset" />
          </mxGeometry>
        </mxCell>
        <mxCell id="9306NAeqGHNyqq7dqVHE-47" value="pilihan 3" style="rhombus;whiteSpace=wrap;html=1;" parent="1" vertex="1">
          <mxGeometry x="1885" y="1521" width="80" height="80" as="geometry" />
        </mxCell>
        <mxCell id="9306NAeqGHNyqq7dqVHE-162" value="" style="edgeStyle=orthogonalEdgeStyle;rounded=0;orthogonalLoop=1;jettySize=auto;html=1;" parent="1" source="9306NAeqGHNyqq7dqVHE-53" target="9306NAeqGHNyqq7dqVHE-161" edge="1">
          <mxGeometry relative="1" as="geometry" />
        </mxCell>
        <mxCell id="9306NAeqGHNyqq7dqVHE-163" value="True" style="edgeLabel;html=1;align=center;verticalAlign=middle;resizable=0;points=[];" parent="9306NAeqGHNyqq7dqVHE-162" vertex="1" connectable="0">
          <mxGeometry x="-0.0857" y="-2" relative="1" as="geometry">
            <mxPoint as="offset" />
          </mxGeometry>
        </mxCell>
        <mxCell id="9306NAeqGHNyqq7dqVHE-167" value="" style="edgeStyle=orthogonalEdgeStyle;rounded=0;orthogonalLoop=1;jettySize=auto;html=1;" parent="1" source="9306NAeqGHNyqq7dqVHE-53" target="9306NAeqGHNyqq7dqVHE-166" edge="1">
          <mxGeometry relative="1" as="geometry" />
        </mxCell>
        <mxCell id="9306NAeqGHNyqq7dqVHE-53" value="pilihan 0" style="rhombus;whiteSpace=wrap;html=1;" parent="1" vertex="1">
          <mxGeometry x="1885" y="1740" width="80" height="80" as="geometry" />
        </mxCell>
        <mxCell id="9306NAeqGHNyqq7dqVHE-60" value="" style="edgeStyle=orthogonalEdgeStyle;rounded=0;orthogonalLoop=1;jettySize=auto;html=1;" parent="1" source="9306NAeqGHNyqq7dqVHE-57" target="9306NAeqGHNyqq7dqVHE-59" edge="1">
          <mxGeometry relative="1" as="geometry" />
        </mxCell>
        <mxCell id="9306NAeqGHNyqq7dqVHE-57" value="input&lt;div&gt;nomor kamar&lt;/div&gt;" style="shape=parallelogram;perimeter=parallelogramPerimeter;whiteSpace=wrap;html=1;fixedSize=1;" parent="1" vertex="1">
          <mxGeometry x="2025" y="755" width="120" height="60" as="geometry" />
        </mxCell>
        <mxCell id="9306NAeqGHNyqq7dqVHE-62" value="" style="edgeStyle=orthogonalEdgeStyle;rounded=0;orthogonalLoop=1;jettySize=auto;html=1;" parent="1" source="9306NAeqGHNyqq7dqVHE-59" target="9306NAeqGHNyqq7dqVHE-61" edge="1">
          <mxGeometry relative="1" as="geometry" />
        </mxCell>
        <mxCell id="9306NAeqGHNyqq7dqVHE-59" value="input&lt;div&gt;&lt;span style=&quot;background-color: initial;&quot;&gt;deskripsi&amp;nbsp;&lt;/span&gt;&lt;/div&gt;&lt;div&gt;&lt;span style=&quot;background-color: initial;&quot;&gt;fasiltas&lt;/span&gt;&lt;br&gt;&lt;/div&gt;" style="shape=parallelogram;perimeter=parallelogramPerimeter;whiteSpace=wrap;html=1;fixedSize=1;" parent="1" vertex="1">
          <mxGeometry x="2170" y="755" width="120" height="60" as="geometry" />
        </mxCell>
        <mxCell id="9306NAeqGHNyqq7dqVHE-64" value="" style="edgeStyle=orthogonalEdgeStyle;rounded=0;orthogonalLoop=1;jettySize=auto;html=1;" parent="1" source="9306NAeqGHNyqq7dqVHE-61" target="9306NAeqGHNyqq7dqVHE-63" edge="1">
          <mxGeometry relative="1" as="geometry" />
        </mxCell>
        <mxCell id="9306NAeqGHNyqq7dqVHE-61" value="input&lt;div&gt;tipe kamar&lt;/div&gt;" style="shape=parallelogram;perimeter=parallelogramPerimeter;whiteSpace=wrap;html=1;fixedSize=1;" parent="1" vertex="1">
          <mxGeometry x="2320" y="755" width="120" height="60" as="geometry" />
        </mxCell>
        <mxCell id="9306NAeqGHNyqq7dqVHE-66" value="" style="edgeStyle=orthogonalEdgeStyle;rounded=0;orthogonalLoop=1;jettySize=auto;html=1;" parent="1" source="9306NAeqGHNyqq7dqVHE-63" target="9306NAeqGHNyqq7dqVHE-65" edge="1">
          <mxGeometry relative="1" as="geometry" />
        </mxCell>
        <mxCell id="9306NAeqGHNyqq7dqVHE-63" value="input&lt;div&gt;harga&lt;/div&gt;" style="shape=parallelogram;perimeter=parallelogramPerimeter;whiteSpace=wrap;html=1;fixedSize=1;" parent="1" vertex="1">
          <mxGeometry x="2470" y="755" width="120" height="60" as="geometry" />
        </mxCell>
        <mxCell id="9306NAeqGHNyqq7dqVHE-68" value="" style="edgeStyle=orthogonalEdgeStyle;rounded=0;orthogonalLoop=1;jettySize=auto;html=1;" parent="1" source="9306NAeqGHNyqq7dqVHE-65" target="9306NAeqGHNyqq7dqVHE-67" edge="1">
          <mxGeometry relative="1" as="geometry" />
        </mxCell>
        <mxCell id="9306NAeqGHNyqq7dqVHE-65" value="data kamar" style="shape=cylinder3;whiteSpace=wrap;html=1;boundedLbl=1;backgroundOutline=1;size=15;" parent="1" vertex="1">
          <mxGeometry x="2630" y="745" width="60" height="80" as="geometry" />
        </mxCell>
        <mxCell id="9306NAeqGHNyqq7dqVHE-70" value="" style="edgeStyle=orthogonalEdgeStyle;rounded=0;orthogonalLoop=1;jettySize=auto;html=1;" parent="1" source="9306NAeqGHNyqq7dqVHE-67" target="9306NAeqGHNyqq7dqVHE-69" edge="1">
          <mxGeometry relative="1" as="geometry" />
        </mxCell>
        <mxCell id="9306NAeqGHNyqq7dqVHE-71" value="True" style="edgeLabel;html=1;align=center;verticalAlign=middle;resizable=0;points=[];" parent="9306NAeqGHNyqq7dqVHE-70" vertex="1" connectable="0">
          <mxGeometry x="-0.23" y="-1" relative="1" as="geometry">
            <mxPoint as="offset" />
          </mxGeometry>
        </mxCell>
        <mxCell id="9306NAeqGHNyqq7dqVHE-73" value="" style="edgeStyle=orthogonalEdgeStyle;rounded=0;orthogonalLoop=1;jettySize=auto;html=1;" parent="1" source="9306NAeqGHNyqq7dqVHE-67" target="9306NAeqGHNyqq7dqVHE-72" edge="1">
          <mxGeometry relative="1" as="geometry" />
        </mxCell>
        <mxCell id="9306NAeqGHNyqq7dqVHE-74" value="False" style="edgeLabel;html=1;align=center;verticalAlign=middle;resizable=0;points=[];" parent="9306NAeqGHNyqq7dqVHE-73" vertex="1" connectable="0">
          <mxGeometry x="-0.0883" y="1" relative="1" as="geometry">
            <mxPoint as="offset" />
          </mxGeometry>
        </mxCell>
        <mxCell id="9306NAeqGHNyqq7dqVHE-67" value="jika kamar&amp;nbsp;&lt;div&gt;belum ada&lt;/div&gt;" style="rhombus;whiteSpace=wrap;html=1;" parent="1" vertex="1">
          <mxGeometry x="2760" y="745" width="80" height="80" as="geometry" />
        </mxCell>
        <mxCell id="9306NAeqGHNyqq7dqVHE-112" value="" style="edgeStyle=orthogonalEdgeStyle;rounded=0;orthogonalLoop=1;jettySize=auto;html=1;" parent="1" source="9306NAeqGHNyqq7dqVHE-69" target="9306NAeqGHNyqq7dqVHE-111" edge="1">
          <mxGeometry relative="1" as="geometry" />
        </mxCell>
        <mxCell id="9306NAeqGHNyqq7dqVHE-69" value="output&lt;div&gt;kamar berhasil&lt;/div&gt;&lt;div&gt;ditambahkan&lt;/div&gt;" style="shape=parallelogram;perimeter=parallelogramPerimeter;whiteSpace=wrap;html=1;fixedSize=1;" parent="1" vertex="1">
          <mxGeometry x="2900" y="755" width="120" height="60" as="geometry" />
        </mxCell>
        <mxCell id="9306NAeqGHNyqq7dqVHE-114" value="" style="edgeStyle=orthogonalEdgeStyle;rounded=0;orthogonalLoop=1;jettySize=auto;html=1;" parent="1" source="9306NAeqGHNyqq7dqVHE-72" target="9306NAeqGHNyqq7dqVHE-113" edge="1">
          <mxGeometry relative="1" as="geometry" />
        </mxCell>
        <mxCell id="9306NAeqGHNyqq7dqVHE-72" value="output&lt;div&gt;kamar sudah ada&lt;/div&gt;" style="shape=parallelogram;perimeter=parallelogramPerimeter;whiteSpace=wrap;html=1;fixedSize=1;" parent="1" vertex="1">
          <mxGeometry x="2740" y="595" width="120" height="60" as="geometry" />
        </mxCell>
        <mxCell id="CITxqDvbWVBlNtM9Zf33-14" value="" style="edgeStyle=orthogonalEdgeStyle;rounded=0;orthogonalLoop=1;jettySize=auto;html=1;" parent="1" source="9306NAeqGHNyqq7dqVHE-79" target="CITxqDvbWVBlNtM9Zf33-13" edge="1">
          <mxGeometry relative="1" as="geometry" />
        </mxCell>
        <mxCell id="9306NAeqGHNyqq7dqVHE-79" value="data kamar" style="shape=cylinder3;whiteSpace=wrap;html=1;boundedLbl=1;backgroundOutline=1;size=15;" parent="1" vertex="1">
          <mxGeometry x="2510" y="945" width="60" height="80" as="geometry" />
        </mxCell>
        <mxCell id="9306NAeqGHNyqq7dqVHE-116" value="" style="edgeStyle=orthogonalEdgeStyle;rounded=0;orthogonalLoop=1;jettySize=auto;html=1;" parent="1" source="9306NAeqGHNyqq7dqVHE-82" target="9306NAeqGHNyqq7dqVHE-115" edge="1">
          <mxGeometry relative="1" as="geometry" />
        </mxCell>
        <mxCell id="9306NAeqGHNyqq7dqVHE-82" value="output&lt;div&gt;menampilkan&amp;nbsp;&lt;/div&gt;&lt;div&gt;data kamar&lt;/div&gt;" style="shape=parallelogram;perimeter=parallelogramPerimeter;whiteSpace=wrap;html=1;fixedSize=1;" parent="1" vertex="1">
          <mxGeometry x="2690" y="860" width="120" height="60" as="geometry" />
        </mxCell>
        <mxCell id="9306NAeqGHNyqq7dqVHE-85" value="End" style="ellipse;whiteSpace=wrap;html=1;" parent="1" vertex="1">
          <mxGeometry x="200" y="1580" width="120" height="80" as="geometry" />
        </mxCell>
        <mxCell id="9306NAeqGHNyqq7dqVHE-88" value="" style="edgeStyle=orthogonalEdgeStyle;rounded=0;orthogonalLoop=1;jettySize=auto;html=1;" parent="1" source="9306NAeqGHNyqq7dqVHE-89" target="9306NAeqGHNyqq7dqVHE-91" edge="1">
          <mxGeometry relative="1" as="geometry" />
        </mxCell>
        <mxCell id="9306NAeqGHNyqq7dqVHE-89" value="input&lt;div&gt;nomor kamar&lt;/div&gt;" style="shape=parallelogram;perimeter=parallelogramPerimeter;whiteSpace=wrap;html=1;fixedSize=1;" parent="1" vertex="1">
          <mxGeometry x="2025" y="1531" width="120" height="60" as="geometry" />
        </mxCell>
        <mxCell id="w00eylqivsFtThTXuI4Y-71" value="" style="edgeStyle=orthogonalEdgeStyle;rounded=0;orthogonalLoop=1;jettySize=auto;html=1;" parent="1" source="9306NAeqGHNyqq7dqVHE-91" target="9306NAeqGHNyqq7dqVHE-97" edge="1">
          <mxGeometry relative="1" as="geometry" />
        </mxCell>
        <mxCell id="9306NAeqGHNyqq7dqVHE-91" value="input&lt;div&gt;status (enable/disable)&lt;/div&gt;" style="shape=parallelogram;perimeter=parallelogramPerimeter;whiteSpace=wrap;html=1;fixedSize=1;" parent="1" vertex="1">
          <mxGeometry x="2170" y="1531" width="120" height="60" as="geometry" />
        </mxCell>
        <mxCell id="9306NAeqGHNyqq7dqVHE-96" value="" style="edgeStyle=orthogonalEdgeStyle;rounded=0;orthogonalLoop=1;jettySize=auto;html=1;" parent="1" source="9306NAeqGHNyqq7dqVHE-97" target="9306NAeqGHNyqq7dqVHE-102" edge="1">
          <mxGeometry relative="1" as="geometry" />
        </mxCell>
        <mxCell id="9306NAeqGHNyqq7dqVHE-97" value="data kamar" style="shape=cylinder3;whiteSpace=wrap;html=1;boundedLbl=1;backgroundOutline=1;size=15;" parent="1" vertex="1">
          <mxGeometry x="2340" y="1521" width="60" height="80" as="geometry" />
        </mxCell>
        <mxCell id="9306NAeqGHNyqq7dqVHE-98" value="" style="edgeStyle=orthogonalEdgeStyle;rounded=0;orthogonalLoop=1;jettySize=auto;html=1;entryX=0;entryY=0.5;entryDx=0;entryDy=0;" parent="1" source="9306NAeqGHNyqq7dqVHE-102" target="9306NAeqGHNyqq7dqVHE-103" edge="1">
          <mxGeometry relative="1" as="geometry">
            <Array as="points">
              <mxPoint x="2560" y="1690" />
            </Array>
          </mxGeometry>
        </mxCell>
        <mxCell id="9306NAeqGHNyqq7dqVHE-99" value="True" style="edgeLabel;html=1;align=center;verticalAlign=middle;resizable=0;points=[];" parent="9306NAeqGHNyqq7dqVHE-98" vertex="1" connectable="0">
          <mxGeometry x="-0.23" y="-1" relative="1" as="geometry">
            <mxPoint as="offset" />
          </mxGeometry>
        </mxCell>
        <mxCell id="9306NAeqGHNyqq7dqVHE-100" value="" style="edgeStyle=orthogonalEdgeStyle;rounded=0;orthogonalLoop=1;jettySize=auto;html=1;entryX=0;entryY=0.5;entryDx=0;entryDy=0;" parent="1" source="9306NAeqGHNyqq7dqVHE-102" target="9306NAeqGHNyqq7dqVHE-104" edge="1">
          <mxGeometry relative="1" as="geometry">
            <Array as="points">
              <mxPoint x="2560" y="1430" />
            </Array>
          </mxGeometry>
        </mxCell>
        <mxCell id="9306NAeqGHNyqq7dqVHE-101" value="False" style="edgeLabel;html=1;align=center;verticalAlign=middle;resizable=0;points=[];" parent="9306NAeqGHNyqq7dqVHE-100" vertex="1" connectable="0">
          <mxGeometry x="-0.0883" y="1" relative="1" as="geometry">
            <mxPoint as="offset" />
          </mxGeometry>
        </mxCell>
        <mxCell id="9306NAeqGHNyqq7dqVHE-102" value="jika data kamar&lt;div&gt;ada&lt;/div&gt;" style="rhombus;whiteSpace=wrap;html=1;" parent="1" vertex="1">
          <mxGeometry x="2500" y="1506" width="120" height="110" as="geometry" />
        </mxCell>
        <mxCell id="CITxqDvbWVBlNtM9Zf33-39" value="" style="edgeStyle=orthogonalEdgeStyle;rounded=0;orthogonalLoop=1;jettySize=auto;html=1;" parent="1" source="9306NAeqGHNyqq7dqVHE-103" target="9306NAeqGHNyqq7dqVHE-120" edge="1">
          <mxGeometry relative="1" as="geometry" />
        </mxCell>
        <mxCell id="9306NAeqGHNyqq7dqVHE-103" value="output&lt;div&gt;kamar berhasil&lt;/div&gt;&lt;div&gt;diubah&lt;/div&gt;" style="shape=parallelogram;perimeter=parallelogramPerimeter;whiteSpace=wrap;html=1;fixedSize=1;" parent="1" vertex="1">
          <mxGeometry x="2620" y="1660" width="120" height="60" as="geometry" />
        </mxCell>
        <mxCell id="9306NAeqGHNyqq7dqVHE-118" value="" style="edgeStyle=orthogonalEdgeStyle;rounded=0;orthogonalLoop=1;jettySize=auto;html=1;" parent="1" source="9306NAeqGHNyqq7dqVHE-104" target="9306NAeqGHNyqq7dqVHE-117" edge="1">
          <mxGeometry relative="1" as="geometry" />
        </mxCell>
        <mxCell id="9306NAeqGHNyqq7dqVHE-104" value="output&lt;div&gt;kamar tidak ditemukan&lt;/div&gt;" style="shape=parallelogram;perimeter=parallelogramPerimeter;whiteSpace=wrap;html=1;fixedSize=1;" parent="1" vertex="1">
          <mxGeometry x="2610" y="1401" width="120" height="60" as="geometry" />
        </mxCell>
        <mxCell id="9306NAeqGHNyqq7dqVHE-110" value="" style="edgeStyle=orthogonalEdgeStyle;rounded=0;orthogonalLoop=1;jettySize=auto;html=1;exitX=0.5;exitY=1;exitDx=0;exitDy=0;" parent="1" source="9306NAeqGHNyqq7dqVHE-109" target="9306NAeqGHNyqq7dqVHE-34" edge="1">
          <mxGeometry relative="1" as="geometry" />
        </mxCell>
        <mxCell id="9306NAeqGHNyqq7dqVHE-109" value="" style="ellipse;whiteSpace=wrap;html=1;fillColor=#d5e8d4;strokeColor=#82b366;" parent="1" vertex="1">
          <mxGeometry x="2050" y="435" width="50" height="50" as="geometry" />
        </mxCell>
        <mxCell id="9306NAeqGHNyqq7dqVHE-111" value="" style="ellipse;whiteSpace=wrap;html=1;fillColor=#d5e8d4;strokeColor=#82b366;" parent="1" vertex="1">
          <mxGeometry x="3050" y="760" width="50" height="50" as="geometry" />
        </mxCell>
        <mxCell id="9306NAeqGHNyqq7dqVHE-113" value="" style="ellipse;whiteSpace=wrap;html=1;fillColor=#d5e8d4;strokeColor=#82b366;" parent="1" vertex="1">
          <mxGeometry x="2775" y="515" width="50" height="50" as="geometry" />
        </mxCell>
        <mxCell id="9306NAeqGHNyqq7dqVHE-115" value="" style="ellipse;whiteSpace=wrap;html=1;fillColor=#d5e8d4;strokeColor=#82b366;" parent="1" vertex="1">
          <mxGeometry x="2830" y="865" width="50" height="50" as="geometry" />
        </mxCell>
        <mxCell id="9306NAeqGHNyqq7dqVHE-117" value="" style="ellipse;whiteSpace=wrap;html=1;fillColor=#d5e8d4;strokeColor=#82b366;" parent="1" vertex="1">
          <mxGeometry x="2760" y="1406" width="50" height="50" as="geometry" />
        </mxCell>
        <mxCell id="9306NAeqGHNyqq7dqVHE-120" value="" style="ellipse;whiteSpace=wrap;html=1;fillColor=#d5e8d4;strokeColor=#82b366;" parent="1" vertex="1">
          <mxGeometry x="2760" y="1665" width="50" height="50" as="geometry" />
        </mxCell>
        <mxCell id="9306NAeqGHNyqq7dqVHE-171" value="" style="edgeStyle=orthogonalEdgeStyle;rounded=0;orthogonalLoop=1;jettySize=auto;html=1;" parent="1" source="9306NAeqGHNyqq7dqVHE-161" target="9306NAeqGHNyqq7dqVHE-170" edge="1">
          <mxGeometry relative="1" as="geometry" />
        </mxCell>
        <mxCell id="9306NAeqGHNyqq7dqVHE-161" value="output&amp;nbsp;&lt;div&gt;keluar dari&amp;nbsp;&lt;/div&gt;&lt;div&gt;admin&lt;/div&gt;" style="shape=parallelogram;perimeter=parallelogramPerimeter;whiteSpace=wrap;html=1;fixedSize=1;" parent="1" vertex="1">
          <mxGeometry x="2070" y="1750" width="120" height="60" as="geometry" />
        </mxCell>
        <mxCell id="9306NAeqGHNyqq7dqVHE-169" value="" style="edgeStyle=orthogonalEdgeStyle;rounded=0;orthogonalLoop=1;jettySize=auto;html=1;" parent="1" source="9306NAeqGHNyqq7dqVHE-166" target="9306NAeqGHNyqq7dqVHE-168" edge="1">
          <mxGeometry relative="1" as="geometry" />
        </mxCell>
        <mxCell id="9306NAeqGHNyqq7dqVHE-166" value="output&lt;div&gt;pilihan tidak valid&lt;/div&gt;" style="shape=parallelogram;perimeter=parallelogramPerimeter;whiteSpace=wrap;html=1;fixedSize=1;" parent="1" vertex="1">
          <mxGeometry x="1865" y="1870" width="120" height="60" as="geometry" />
        </mxCell>
        <mxCell id="9306NAeqGHNyqq7dqVHE-168" value="" style="ellipse;whiteSpace=wrap;html=1;fillColor=#d5e8d4;strokeColor=#82b366;" parent="1" vertex="1">
          <mxGeometry x="1900" y="1990" width="50" height="50" as="geometry" />
        </mxCell>
        <mxCell id="9306NAeqGHNyqq7dqVHE-170" value="" style="ellipse;whiteSpace=wrap;html=1;fillColor=#f8cecc;strokeColor=#b85450;" parent="1" vertex="1">
          <mxGeometry x="2105" y="1850" width="50" height="50" as="geometry" />
        </mxCell>
        <mxCell id="9306NAeqGHNyqq7dqVHE-174" value="" style="edgeStyle=orthogonalEdgeStyle;rounded=0;orthogonalLoop=1;jettySize=auto;html=1;" parent="1" source="9306NAeqGHNyqq7dqVHE-172" target="9306NAeqGHNyqq7dqVHE-173" edge="1">
          <mxGeometry relative="1" as="geometry" />
        </mxCell>
        <mxCell id="9306NAeqGHNyqq7dqVHE-172" value="3" style="ellipse;whiteSpace=wrap;html=1;fillColor=#dae8fc;strokeColor=#6c8ebf;" parent="1" vertex="1">
          <mxGeometry x="3310" y="375" width="50" height="50" as="geometry" />
        </mxCell>
        <mxCell id="9306NAeqGHNyqq7dqVHE-176" value="" style="edgeStyle=orthogonalEdgeStyle;rounded=0;orthogonalLoop=1;jettySize=auto;html=1;" parent="1" source="9306NAeqGHNyqq7dqVHE-173" target="9306NAeqGHNyqq7dqVHE-175" edge="1">
          <mxGeometry relative="1" as="geometry" />
        </mxCell>
        <mxCell id="9306NAeqGHNyqq7dqVHE-173" value="output&lt;div&gt;&lt;div&gt;1. Lihat Kamar Tersedia&lt;/div&gt;&lt;div&gt;2. Booking Kamar&lt;/div&gt;&lt;div&gt;0. Keluar&lt;/div&gt;&lt;/div&gt;" style="shape=parallelogram;perimeter=parallelogramPerimeter;whiteSpace=wrap;html=1;fixedSize=1;" parent="1" vertex="1">
          <mxGeometry x="3260" y="470" width="150" height="90" as="geometry" />
        </mxCell>
        <mxCell id="9306NAeqGHNyqq7dqVHE-178" value="" style="edgeStyle=orthogonalEdgeStyle;rounded=0;orthogonalLoop=1;jettySize=auto;html=1;" parent="1" source="9306NAeqGHNyqq7dqVHE-175" target="9306NAeqGHNyqq7dqVHE-177" edge="1">
          <mxGeometry relative="1" as="geometry" />
        </mxCell>
        <mxCell id="9306NAeqGHNyqq7dqVHE-175" value="input pilihan" style="shape=parallelogram;perimeter=parallelogramPerimeter;whiteSpace=wrap;html=1;fixedSize=1;" parent="1" vertex="1">
          <mxGeometry x="3265" y="610" width="140" height="70" as="geometry" />
        </mxCell>
        <mxCell id="9306NAeqGHNyqq7dqVHE-180" value="" style="edgeStyle=orthogonalEdgeStyle;rounded=0;orthogonalLoop=1;jettySize=auto;html=1;" parent="1" source="9306NAeqGHNyqq7dqVHE-177" target="9306NAeqGHNyqq7dqVHE-179" edge="1">
          <mxGeometry relative="1" as="geometry">
            <Array as="points">
              <mxPoint x="3335" y="970" />
              <mxPoint x="3335" y="970" />
            </Array>
          </mxGeometry>
        </mxCell>
        <mxCell id="9306NAeqGHNyqq7dqVHE-193" value="False" style="edgeLabel;html=1;align=center;verticalAlign=middle;resizable=0;points=[];" parent="9306NAeqGHNyqq7dqVHE-180" vertex="1" connectable="0">
          <mxGeometry x="-0.1" relative="1" as="geometry">
            <mxPoint as="offset" />
          </mxGeometry>
        </mxCell>
        <mxCell id="9306NAeqGHNyqq7dqVHE-184" value="" style="edgeStyle=orthogonalEdgeStyle;rounded=0;orthogonalLoop=1;jettySize=auto;html=1;" parent="1" source="9306NAeqGHNyqq7dqVHE-177" target="9306NAeqGHNyqq7dqVHE-183" edge="1">
          <mxGeometry relative="1" as="geometry" />
        </mxCell>
        <mxCell id="9306NAeqGHNyqq7dqVHE-187" value="True" style="edgeLabel;html=1;align=center;verticalAlign=middle;resizable=0;points=[];" parent="9306NAeqGHNyqq7dqVHE-184" vertex="1" connectable="0">
          <mxGeometry x="-0.0745" relative="1" as="geometry">
            <mxPoint x="-1" as="offset" />
          </mxGeometry>
        </mxCell>
        <mxCell id="9306NAeqGHNyqq7dqVHE-177" value="pilihan 1" style="rhombus;whiteSpace=wrap;html=1;" parent="1" vertex="1">
          <mxGeometry x="3295" y="810" width="80" height="80" as="geometry" />
        </mxCell>
        <mxCell id="9306NAeqGHNyqq7dqVHE-182" value="" style="edgeStyle=orthogonalEdgeStyle;rounded=0;orthogonalLoop=1;jettySize=auto;html=1;" parent="1" source="9306NAeqGHNyqq7dqVHE-179" target="9306NAeqGHNyqq7dqVHE-181" edge="1">
          <mxGeometry relative="1" as="geometry" />
        </mxCell>
        <mxCell id="w00eylqivsFtThTXuI4Y-74" value="False" style="edgeLabel;html=1;align=center;verticalAlign=middle;resizable=0;points=[];" parent="9306NAeqGHNyqq7dqVHE-182" vertex="1" connectable="0">
          <mxGeometry x="-0.1225" y="-1" relative="1" as="geometry">
            <mxPoint as="offset" />
          </mxGeometry>
        </mxCell>
        <mxCell id="9306NAeqGHNyqq7dqVHE-195" value="" style="edgeStyle=orthogonalEdgeStyle;rounded=0;orthogonalLoop=1;jettySize=auto;html=1;" parent="1" source="9306NAeqGHNyqq7dqVHE-179" target="9306NAeqGHNyqq7dqVHE-194" edge="1">
          <mxGeometry relative="1" as="geometry" />
        </mxCell>
        <mxCell id="9306NAeqGHNyqq7dqVHE-196" value="True" style="edgeLabel;html=1;align=center;verticalAlign=middle;resizable=0;points=[];" parent="9306NAeqGHNyqq7dqVHE-195" vertex="1" connectable="0">
          <mxGeometry x="-0.0571" relative="1" as="geometry">
            <mxPoint as="offset" />
          </mxGeometry>
        </mxCell>
        <mxCell id="9306NAeqGHNyqq7dqVHE-179" value="pilihan 2" style="rhombus;whiteSpace=wrap;html=1;" parent="1" vertex="1">
          <mxGeometry x="3295" y="1059.7" width="80" height="80" as="geometry" />
        </mxCell>
        <mxCell id="9306NAeqGHNyqq7dqVHE-212" value="" style="edgeStyle=orthogonalEdgeStyle;rounded=0;orthogonalLoop=1;jettySize=auto;html=1;" parent="1" source="9306NAeqGHNyqq7dqVHE-181" target="9306NAeqGHNyqq7dqVHE-211" edge="1">
          <mxGeometry relative="1" as="geometry" />
        </mxCell>
        <mxCell id="9306NAeqGHNyqq7dqVHE-213" value="True" style="edgeLabel;html=1;align=center;verticalAlign=middle;resizable=0;points=[];" parent="9306NAeqGHNyqq7dqVHE-212" vertex="1" connectable="0">
          <mxGeometry x="-0.1263" y="1" relative="1" as="geometry">
            <mxPoint as="offset" />
          </mxGeometry>
        </mxCell>
        <mxCell id="9306NAeqGHNyqq7dqVHE-215" value="" style="edgeStyle=orthogonalEdgeStyle;rounded=0;orthogonalLoop=1;jettySize=auto;html=1;" parent="1" source="9306NAeqGHNyqq7dqVHE-181" target="9306NAeqGHNyqq7dqVHE-214" edge="1">
          <mxGeometry relative="1" as="geometry" />
        </mxCell>
        <mxCell id="9306NAeqGHNyqq7dqVHE-216" value="False" style="edgeLabel;html=1;align=center;verticalAlign=middle;resizable=0;points=[];" parent="9306NAeqGHNyqq7dqVHE-215" vertex="1" connectable="0">
          <mxGeometry x="-0.066" relative="1" as="geometry">
            <mxPoint as="offset" />
          </mxGeometry>
        </mxCell>
        <mxCell id="9306NAeqGHNyqq7dqVHE-181" value="pilihan 0" style="rhombus;whiteSpace=wrap;html=1;" parent="1" vertex="1">
          <mxGeometry x="3295" y="1295" width="80" height="80" as="geometry" />
        </mxCell>
        <mxCell id="9306NAeqGHNyqq7dqVHE-186" value="" style="edgeStyle=orthogonalEdgeStyle;rounded=0;orthogonalLoop=1;jettySize=auto;html=1;" parent="1" source="9306NAeqGHNyqq7dqVHE-183" target="9306NAeqGHNyqq7dqVHE-185" edge="1">
          <mxGeometry relative="1" as="geometry" />
        </mxCell>
        <mxCell id="9306NAeqGHNyqq7dqVHE-183" value="data kamar" style="shape=cylinder3;whiteSpace=wrap;html=1;boundedLbl=1;backgroundOutline=1;size=15;" parent="1" vertex="1">
          <mxGeometry x="3450" y="810" width="60" height="80" as="geometry" />
        </mxCell>
        <mxCell id="9306NAeqGHNyqq7dqVHE-192" value="" style="edgeStyle=orthogonalEdgeStyle;rounded=0;orthogonalLoop=1;jettySize=auto;html=1;" parent="1" source="9306NAeqGHNyqq7dqVHE-185" target="9306NAeqGHNyqq7dqVHE-191" edge="1">
          <mxGeometry relative="1" as="geometry" />
        </mxCell>
        <mxCell id="9306NAeqGHNyqq7dqVHE-185" value="output&lt;div&gt;Daftar&amp;nbsp;&amp;nbsp;&lt;span style=&quot;background-color: initial;&quot;&gt;data&amp;nbsp;&lt;/span&gt;&lt;/div&gt;&lt;div&gt;&lt;span style=&quot;background-color: initial;&quot;&gt;kamar&amp;nbsp;&lt;/span&gt;&lt;span style=&quot;background-color: initial;&quot;&gt;yang tersedia&amp;nbsp;&lt;/span&gt;&lt;/div&gt;&lt;div&gt;untuk dipesan&lt;br&gt;&lt;/div&gt;" style="shape=parallelogram;perimeter=parallelogramPerimeter;whiteSpace=wrap;html=1;fixedSize=1;" parent="1" vertex="1">
          <mxGeometry x="3560" y="820" width="130" height="60" as="geometry" />
        </mxCell>
        <mxCell id="9306NAeqGHNyqq7dqVHE-190" value="" style="edgeStyle=orthogonalEdgeStyle;rounded=0;orthogonalLoop=1;jettySize=auto;html=1;exitX=0.5;exitY=1;exitDx=0;exitDy=0;" parent="1" source="9306NAeqGHNyqq7dqVHE-188" target="9306NAeqGHNyqq7dqVHE-173" edge="1">
          <mxGeometry relative="1" as="geometry" />
        </mxCell>
        <mxCell id="9306NAeqGHNyqq7dqVHE-188" value="" style="ellipse;whiteSpace=wrap;html=1;aspect=fixed;fillColor=#e1d5e7;strokeColor=#9673a6;" parent="1" vertex="1">
          <mxGeometry x="3440" y="440" width="50" height="50" as="geometry" />
        </mxCell>
        <mxCell id="9306NAeqGHNyqq7dqVHE-191" value="" style="ellipse;whiteSpace=wrap;html=1;aspect=fixed;fillColor=#e1d5e7;strokeColor=#9673a6;" parent="1" vertex="1">
          <mxGeometry x="3730" y="825" width="50" height="50" as="geometry" />
        </mxCell>
        <mxCell id="9306NAeqGHNyqq7dqVHE-198" value="" style="edgeStyle=orthogonalEdgeStyle;rounded=0;orthogonalLoop=1;jettySize=auto;html=1;" parent="1" source="9306NAeqGHNyqq7dqVHE-194" target="9306NAeqGHNyqq7dqVHE-197" edge="1">
          <mxGeometry relative="1" as="geometry" />
        </mxCell>
        <mxCell id="9306NAeqGHNyqq7dqVHE-194" value="input&lt;div&gt;Nomor Kamar yang ingin dipesan&lt;br&gt;&lt;/div&gt;" style="shape=parallelogram;perimeter=parallelogramPerimeter;whiteSpace=wrap;html=1;fixedSize=1;" parent="1" vertex="1">
          <mxGeometry x="3417.5" y="1075" width="120" height="60" as="geometry" />
        </mxCell>
        <mxCell id="9306NAeqGHNyqq7dqVHE-200" value="" style="edgeStyle=orthogonalEdgeStyle;rounded=0;orthogonalLoop=1;jettySize=auto;html=1;" parent="1" source="9306NAeqGHNyqq7dqVHE-197" target="9306NAeqGHNyqq7dqVHE-199" edge="1">
          <mxGeometry relative="1" as="geometry" />
        </mxCell>
        <mxCell id="9306NAeqGHNyqq7dqVHE-197" value="data kamar" style="shape=cylinder3;whiteSpace=wrap;html=1;boundedLbl=1;backgroundOutline=1;size=15;" parent="1" vertex="1">
          <mxGeometry x="3572.5" y="1065" width="60" height="80" as="geometry" />
        </mxCell>
        <mxCell id="9306NAeqGHNyqq7dqVHE-202" value="" style="edgeStyle=orthogonalEdgeStyle;rounded=0;orthogonalLoop=1;jettySize=auto;html=1;entryX=0;entryY=0.5;entryDx=0;entryDy=0;" parent="1" source="9306NAeqGHNyqq7dqVHE-199" target="9306NAeqGHNyqq7dqVHE-201" edge="1">
          <mxGeometry relative="1" as="geometry">
            <Array as="points">
              <mxPoint x="3758" y="1000" />
            </Array>
          </mxGeometry>
        </mxCell>
        <mxCell id="9306NAeqGHNyqq7dqVHE-203" value="True" style="edgeLabel;html=1;align=center;verticalAlign=middle;resizable=0;points=[];" parent="9306NAeqGHNyqq7dqVHE-202" vertex="1" connectable="0">
          <mxGeometry x="-0.1059" y="-5" relative="1" as="geometry">
            <mxPoint as="offset" />
          </mxGeometry>
        </mxCell>
        <mxCell id="w00eylqivsFtThTXuI4Y-76" value="" style="edgeStyle=orthogonalEdgeStyle;rounded=0;orthogonalLoop=1;jettySize=auto;html=1;entryX=0;entryY=0.5;entryDx=0;entryDy=0;" parent="1" source="9306NAeqGHNyqq7dqVHE-199" edge="1">
          <mxGeometry relative="1" as="geometry">
            <mxPoint x="3829.9999999999995" y="1230" as="targetPoint" />
            <Array as="points">
              <mxPoint x="3760" y="1230" />
            </Array>
          </mxGeometry>
        </mxCell>
        <mxCell id="9306NAeqGHNyqq7dqVHE-199" value="jika nomor&amp;nbsp;&lt;div&gt;kamar ada di data&amp;nbsp;&lt;div&gt;kamar&lt;/div&gt;&lt;/div&gt;" style="rhombus;whiteSpace=wrap;html=1;" parent="1" vertex="1">
          <mxGeometry x="3702.5" y="1050" width="110" height="110" as="geometry" />
        </mxCell>
        <mxCell id="9306NAeqGHNyqq7dqVHE-208" value="" style="edgeStyle=orthogonalEdgeStyle;rounded=0;orthogonalLoop=1;jettySize=auto;html=1;" parent="1" source="9306NAeqGHNyqq7dqVHE-201" target="9306NAeqGHNyqq7dqVHE-207" edge="1">
          <mxGeometry relative="1" as="geometry" />
        </mxCell>
        <mxCell id="9306NAeqGHNyqq7dqVHE-201" value="output&lt;div&gt;Kamar berhasil dipesan&lt;br&gt;&lt;/div&gt;" style="shape=parallelogram;perimeter=parallelogramPerimeter;whiteSpace=wrap;html=1;fixedSize=1;" parent="1" vertex="1">
          <mxGeometry x="3840" y="970" width="120" height="60" as="geometry" />
        </mxCell>
        <mxCell id="w00eylqivsFtThTXuI4Y-78" value="" style="edgeStyle=orthogonalEdgeStyle;rounded=0;orthogonalLoop=1;jettySize=auto;html=1;" parent="1" source="9306NAeqGHNyqq7dqVHE-204" target="9306NAeqGHNyqq7dqVHE-209" edge="1">
          <mxGeometry relative="1" as="geometry" />
        </mxCell>
        <mxCell id="9306NAeqGHNyqq7dqVHE-204" value="output&lt;div&gt;Kamar dengan&amp;nbsp;&lt;/div&gt;&lt;div&gt;nomor tersebut tidak ditemukan&lt;br&gt;&lt;/div&gt;" style="shape=parallelogram;perimeter=parallelogramPerimeter;whiteSpace=wrap;html=1;fixedSize=1;" parent="1" vertex="1">
          <mxGeometry x="3820" y="1195" width="150" height="75" as="geometry" />
        </mxCell>
        <mxCell id="9306NAeqGHNyqq7dqVHE-207" value="" style="ellipse;whiteSpace=wrap;html=1;aspect=fixed;fillColor=#e1d5e7;strokeColor=#9673a6;" parent="1" vertex="1">
          <mxGeometry x="4000" y="975" width="50" height="50" as="geometry" />
        </mxCell>
        <mxCell id="9306NAeqGHNyqq7dqVHE-209" value="" style="ellipse;whiteSpace=wrap;html=1;aspect=fixed;fillColor=#e1d5e7;strokeColor=#9673a6;" parent="1" vertex="1">
          <mxGeometry x="4010" y="1207.5" width="50" height="50" as="geometry" />
        </mxCell>
        <mxCell id="9306NAeqGHNyqq7dqVHE-220" value="" style="edgeStyle=orthogonalEdgeStyle;rounded=0;orthogonalLoop=1;jettySize=auto;html=1;" parent="1" source="9306NAeqGHNyqq7dqVHE-211" target="9306NAeqGHNyqq7dqVHE-219" edge="1">
          <mxGeometry relative="1" as="geometry" />
        </mxCell>
        <mxCell id="9306NAeqGHNyqq7dqVHE-211" value="output&amp;nbsp;&lt;div&gt;keluar dari user&lt;/div&gt;" style="shape=parallelogram;perimeter=parallelogramPerimeter;whiteSpace=wrap;html=1;fixedSize=1;" parent="1" vertex="1">
          <mxGeometry x="3430" y="1305" width="120" height="60" as="geometry" />
        </mxCell>
        <mxCell id="9306NAeqGHNyqq7dqVHE-218" value="" style="edgeStyle=orthogonalEdgeStyle;rounded=0;orthogonalLoop=1;jettySize=auto;html=1;" parent="1" source="9306NAeqGHNyqq7dqVHE-214" target="9306NAeqGHNyqq7dqVHE-217" edge="1">
          <mxGeometry relative="1" as="geometry" />
        </mxCell>
        <mxCell id="9306NAeqGHNyqq7dqVHE-214" value="output&lt;div&gt;pilihan tidak valid&lt;/div&gt;" style="shape=parallelogram;perimeter=parallelogramPerimeter;whiteSpace=wrap;html=1;fixedSize=1;" parent="1" vertex="1">
          <mxGeometry x="3275" y="1435" width="120" height="60" as="geometry" />
        </mxCell>
        <mxCell id="9306NAeqGHNyqq7dqVHE-217" value="" style="ellipse;whiteSpace=wrap;html=1;aspect=fixed;fillColor=#e1d5e7;strokeColor=#9673a6;" parent="1" vertex="1">
          <mxGeometry x="3310" y="1530" width="50" height="50" as="geometry" />
        </mxCell>
        <mxCell id="9306NAeqGHNyqq7dqVHE-219" value="" style="ellipse;whiteSpace=wrap;html=1;fillColor=#f8cecc;strokeColor=#b85450;" parent="1" vertex="1">
          <mxGeometry x="3465" y="1410" width="50" height="50" as="geometry" />
        </mxCell>
        <mxCell id="w00eylqivsFtThTXuI4Y-3" value="" style="edgeStyle=orthogonalEdgeStyle;rounded=0;orthogonalLoop=1;jettySize=auto;html=1;" parent="1" source="w00eylqivsFtThTXuI4Y-1" target="9306NAeqGHNyqq7dqVHE-6" edge="1">
          <mxGeometry relative="1" as="geometry" />
        </mxCell>
        <mxCell id="w00eylqivsFtThTXuI4Y-8" value="False" style="edgeLabel;html=1;align=center;verticalAlign=middle;resizable=0;points=[];" parent="w00eylqivsFtThTXuI4Y-3" vertex="1" connectable="0">
          <mxGeometry x="-0.1922" y="-1" relative="1" as="geometry">
            <mxPoint as="offset" />
          </mxGeometry>
        </mxCell>
        <mxCell id="w00eylqivsFtThTXuI4Y-6" value="" style="edgeStyle=orthogonalEdgeStyle;rounded=0;orthogonalLoop=1;jettySize=auto;html=1;" parent="1" source="w00eylqivsFtThTXuI4Y-1" target="w00eylqivsFtThTXuI4Y-5" edge="1">
          <mxGeometry relative="1" as="geometry" />
        </mxCell>
        <mxCell id="w00eylqivsFtThTXuI4Y-7" value="True" style="edgeLabel;html=1;align=center;verticalAlign=middle;resizable=0;points=[];" parent="w00eylqivsFtThTXuI4Y-6" vertex="1" connectable="0">
          <mxGeometry x="-0.0895" y="-1" relative="1" as="geometry">
            <mxPoint as="offset" />
          </mxGeometry>
        </mxCell>
        <mxCell id="w00eylqivsFtThTXuI4Y-1" value="Pilihan 1" style="rhombus;whiteSpace=wrap;html=1;" parent="1" vertex="1">
          <mxGeometry x="220" y="375" width="80" height="70" as="geometry" />
        </mxCell>
        <mxCell id="w00eylqivsFtThTXuI4Y-10" value="" style="edgeStyle=orthogonalEdgeStyle;rounded=0;orthogonalLoop=1;jettySize=auto;html=1;" parent="1" source="w00eylqivsFtThTXuI4Y-5" target="w00eylqivsFtThTXuI4Y-9" edge="1">
          <mxGeometry relative="1" as="geometry" />
        </mxCell>
        <mxCell id="w00eylqivsFtThTXuI4Y-5" value="Buat akun&amp;nbsp;&lt;div&gt;baru&lt;/div&gt;" style="shape=process;whiteSpace=wrap;html=1;backgroundOutline=1;" parent="1" vertex="1">
          <mxGeometry x="360" y="380" width="120" height="60" as="geometry" />
        </mxCell>
        <mxCell id="w00eylqivsFtThTXuI4Y-9" value="1" style="ellipse;whiteSpace=wrap;html=1;fillColor=#2E89FF;strokeColor=none;" parent="1" vertex="1">
          <mxGeometry x="520" y="385" width="50" height="50" as="geometry" />
        </mxCell>
        <mxCell id="w00eylqivsFtThTXuI4Y-13" value="" style="edgeStyle=orthogonalEdgeStyle;rounded=0;orthogonalLoop=1;jettySize=auto;html=1;" parent="1" source="w00eylqivsFtThTXuI4Y-11" target="w00eylqivsFtThTXuI4Y-12" edge="1">
          <mxGeometry relative="1" as="geometry" />
        </mxCell>
        <mxCell id="w00eylqivsFtThTXuI4Y-11" value="1" style="ellipse;whiteSpace=wrap;html=1;fillColor=#2E89FF;strokeColor=none;" parent="1" vertex="1">
          <mxGeometry x="1515" y="375" width="50" height="50" as="geometry" />
        </mxCell>
        <mxCell id="w00eylqivsFtThTXuI4Y-15" value="" style="edgeStyle=orthogonalEdgeStyle;rounded=0;orthogonalLoop=1;jettySize=auto;html=1;" parent="1" source="w00eylqivsFtThTXuI4Y-12" target="w00eylqivsFtThTXuI4Y-14" edge="1">
          <mxGeometry relative="1" as="geometry" />
        </mxCell>
        <mxCell id="w00eylqivsFtThTXuI4Y-12" value="output&lt;div&gt;username baru&lt;/div&gt;" style="shape=parallelogram;perimeter=parallelogramPerimeter;whiteSpace=wrap;html=1;fixedSize=1;" parent="1" vertex="1">
          <mxGeometry x="1480" y="470" width="120" height="60" as="geometry" />
        </mxCell>
        <mxCell id="w00eylqivsFtThTXuI4Y-17" value="" style="edgeStyle=orthogonalEdgeStyle;rounded=0;orthogonalLoop=1;jettySize=auto;html=1;" parent="1" source="w00eylqivsFtThTXuI4Y-14" target="w00eylqivsFtThTXuI4Y-16" edge="1">
          <mxGeometry relative="1" as="geometry" />
        </mxCell>
        <mxCell id="w00eylqivsFtThTXuI4Y-14" value="output&lt;div&gt;password baru&lt;/div&gt;" style="shape=parallelogram;perimeter=parallelogramPerimeter;whiteSpace=wrap;html=1;fixedSize=1;" parent="1" vertex="1">
          <mxGeometry x="1480" y="585" width="120" height="60" as="geometry" />
        </mxCell>
        <mxCell id="w00eylqivsFtThTXuI4Y-19" value="" style="edgeStyle=orthogonalEdgeStyle;rounded=0;orthogonalLoop=1;jettySize=auto;html=1;" parent="1" source="w00eylqivsFtThTXuI4Y-16" target="w00eylqivsFtThTXuI4Y-18" edge="1">
          <mxGeometry relative="1" as="geometry" />
        </mxCell>
        <mxCell id="w00eylqivsFtThTXuI4Y-16" value="output&lt;div&gt;role admin/user&lt;/div&gt;" style="shape=parallelogram;perimeter=parallelogramPerimeter;whiteSpace=wrap;html=1;fixedSize=1;" parent="1" vertex="1">
          <mxGeometry x="1480" y="700" width="120" height="60" as="geometry" />
        </mxCell>
        <mxCell id="w00eylqivsFtThTXuI4Y-21" value="" style="edgeStyle=orthogonalEdgeStyle;rounded=0;orthogonalLoop=1;jettySize=auto;html=1;" parent="1" source="w00eylqivsFtThTXuI4Y-18" target="w00eylqivsFtThTXuI4Y-20" edge="1">
          <mxGeometry relative="1" as="geometry" />
        </mxCell>
        <mxCell id="w00eylqivsFtThTXuI4Y-18" value="data&amp;nbsp;&lt;div&gt;akun&lt;/div&gt;" style="shape=cylinder3;whiteSpace=wrap;html=1;boundedLbl=1;backgroundOutline=1;size=15;" parent="1" vertex="1">
          <mxGeometry x="1510" y="795" width="60" height="80" as="geometry" />
        </mxCell>
        <mxCell id="w00eylqivsFtThTXuI4Y-23" value="" style="edgeStyle=orthogonalEdgeStyle;rounded=0;orthogonalLoop=1;jettySize=auto;html=1;entryX=0.5;entryY=0;entryDx=0;entryDy=0;" parent="1" source="w00eylqivsFtThTXuI4Y-20" target="w00eylqivsFtThTXuI4Y-22" edge="1">
          <mxGeometry relative="1" as="geometry">
            <Array as="points">
              <mxPoint x="1655" y="960" />
            </Array>
          </mxGeometry>
        </mxCell>
        <mxCell id="w00eylqivsFtThTXuI4Y-24" value="True" style="edgeLabel;html=1;align=center;verticalAlign=middle;resizable=0;points=[];" parent="w00eylqivsFtThTXuI4Y-23" vertex="1" connectable="0">
          <mxGeometry x="-0.4124" relative="1" as="geometry">
            <mxPoint as="offset" />
          </mxGeometry>
        </mxCell>
        <mxCell id="w00eylqivsFtThTXuI4Y-26" value="" style="edgeStyle=orthogonalEdgeStyle;rounded=0;orthogonalLoop=1;jettySize=auto;html=1;" parent="1" source="w00eylqivsFtThTXuI4Y-20" target="w00eylqivsFtThTXuI4Y-25" edge="1">
          <mxGeometry relative="1" as="geometry">
            <Array as="points">
              <mxPoint x="1440" y="955" />
            </Array>
          </mxGeometry>
        </mxCell>
        <mxCell id="w00eylqivsFtThTXuI4Y-27" value="False" style="edgeLabel;html=1;align=center;verticalAlign=middle;resizable=0;points=[];" parent="w00eylqivsFtThTXuI4Y-26" vertex="1" connectable="0">
          <mxGeometry x="-0.4447" y="1" relative="1" as="geometry">
            <mxPoint as="offset" />
          </mxGeometry>
        </mxCell>
        <mxCell id="w00eylqivsFtThTXuI4Y-20" value="jika akun&amp;nbsp;&lt;div&gt;belum terdapat di data akun&lt;/div&gt;" style="rhombus;whiteSpace=wrap;html=1;" parent="1" vertex="1">
          <mxGeometry x="1485" y="910" width="110" height="100" as="geometry" />
        </mxCell>
        <mxCell id="CITxqDvbWVBlNtM9Zf33-40" value="" style="edgeStyle=orthogonalEdgeStyle;rounded=0;orthogonalLoop=1;jettySize=auto;html=1;" parent="1" source="w00eylqivsFtThTXuI4Y-22" target="w00eylqivsFtThTXuI4Y-28" edge="1">
          <mxGeometry relative="1" as="geometry" />
        </mxCell>
        <mxCell id="w00eylqivsFtThTXuI4Y-22" value="output&lt;div&gt;akun berhasil&lt;/div&gt;&lt;div&gt;dibuat&lt;/div&gt;" style="shape=parallelogram;perimeter=parallelogramPerimeter;whiteSpace=wrap;html=1;fixedSize=1;" parent="1" vertex="1">
          <mxGeometry x="1595" y="999.7" width="120" height="60" as="geometry" />
        </mxCell>
        <mxCell id="w00eylqivsFtThTXuI4Y-32" value="" style="edgeStyle=orthogonalEdgeStyle;rounded=0;orthogonalLoop=1;jettySize=auto;html=1;" parent="1" source="w00eylqivsFtThTXuI4Y-25" target="w00eylqivsFtThTXuI4Y-31" edge="1">
          <mxGeometry relative="1" as="geometry" />
        </mxCell>
        <mxCell id="w00eylqivsFtThTXuI4Y-25" value="output&lt;div&gt;error saat&lt;/div&gt;&lt;div&gt;membuat akun&lt;/div&gt;" style="shape=parallelogram;perimeter=parallelogramPerimeter;whiteSpace=wrap;html=1;fixedSize=1;" parent="1" vertex="1">
          <mxGeometry x="1380" y="1005" width="120" height="60" as="geometry" />
        </mxCell>
        <mxCell id="w00eylqivsFtThTXuI4Y-28" value="" style="ellipse;whiteSpace=wrap;html=1;fillColor=#f8cecc;strokeColor=#b85450;" parent="1" vertex="1">
          <mxGeometry x="1630" y="1100" width="50" height="50" as="geometry" />
        </mxCell>
        <mxCell id="w00eylqivsFtThTXuI4Y-31" value="" style="ellipse;whiteSpace=wrap;html=1;fillColor=#f8cecc;strokeColor=#b85450;" parent="1" vertex="1">
          <mxGeometry x="1415" y="1105" width="50" height="50" as="geometry" />
        </mxCell>
        <mxCell id="w00eylqivsFtThTXuI4Y-37" value="" style="edgeStyle=orthogonalEdgeStyle;rounded=0;orthogonalLoop=1;jettySize=auto;html=1;" parent="1" source="w00eylqivsFtThTXuI4Y-33" target="w00eylqivsFtThTXuI4Y-36" edge="1">
          <mxGeometry relative="1" as="geometry" />
        </mxCell>
        <mxCell id="w00eylqivsFtThTXuI4Y-33" value="input&amp;nbsp;&lt;div&gt;username&lt;/div&gt;" style="shape=parallelogram;perimeter=parallelogramPerimeter;whiteSpace=wrap;html=1;fixedSize=1;" parent="1" vertex="1">
          <mxGeometry x="360" y="496" width="120" height="60" as="geometry" />
        </mxCell>
        <mxCell id="w00eylqivsFtThTXuI4Y-41" value="" style="edgeStyle=orthogonalEdgeStyle;rounded=0;orthogonalLoop=1;jettySize=auto;html=1;" parent="1" source="w00eylqivsFtThTXuI4Y-36" target="w00eylqivsFtThTXuI4Y-40" edge="1">
          <mxGeometry relative="1" as="geometry" />
        </mxCell>
        <mxCell id="w00eylqivsFtThTXuI4Y-36" value="input&amp;nbsp;&lt;div&gt;password&lt;/div&gt;" style="shape=parallelogram;perimeter=parallelogramPerimeter;whiteSpace=wrap;html=1;fixedSize=1;" parent="1" vertex="1">
          <mxGeometry x="510" y="496" width="120" height="60" as="geometry" />
        </mxCell>
        <mxCell id="w00eylqivsFtThTXuI4Y-43" value="" style="edgeStyle=orthogonalEdgeStyle;rounded=0;orthogonalLoop=1;jettySize=auto;html=1;" parent="1" source="w00eylqivsFtThTXuI4Y-40" target="w00eylqivsFtThTXuI4Y-42" edge="1">
          <mxGeometry relative="1" as="geometry" />
        </mxCell>
        <mxCell id="w00eylqivsFtThTXuI4Y-40" value="data&amp;nbsp;&lt;div&gt;akun&lt;/div&gt;" style="shape=cylinder3;whiteSpace=wrap;html=1;boundedLbl=1;backgroundOutline=1;size=15;" parent="1" vertex="1">
          <mxGeometry x="540" y="590" width="60" height="80" as="geometry" />
        </mxCell>
        <mxCell id="w00eylqivsFtThTXuI4Y-45" value="" style="edgeStyle=orthogonalEdgeStyle;rounded=0;orthogonalLoop=1;jettySize=auto;html=1;" parent="1" source="w00eylqivsFtThTXuI4Y-42" target="w00eylqivsFtThTXuI4Y-44" edge="1">
          <mxGeometry relative="1" as="geometry" />
        </mxCell>
        <mxCell id="w00eylqivsFtThTXuI4Y-47" value="True" style="edgeLabel;html=1;align=center;verticalAlign=middle;resizable=0;points=[];" parent="w00eylqivsFtThTXuI4Y-45" vertex="1" connectable="0">
          <mxGeometry x="-0.0267" y="-1" relative="1" as="geometry">
            <mxPoint as="offset" />
          </mxGeometry>
        </mxCell>
        <mxCell id="w00eylqivsFtThTXuI4Y-49" value="" style="edgeStyle=orthogonalEdgeStyle;rounded=0;orthogonalLoop=1;jettySize=auto;html=1;" parent="1" source="w00eylqivsFtThTXuI4Y-42" target="w00eylqivsFtThTXuI4Y-48" edge="1">
          <mxGeometry relative="1" as="geometry" />
        </mxCell>
        <mxCell id="w00eylqivsFtThTXuI4Y-50" value="False" style="edgeLabel;html=1;align=center;verticalAlign=middle;resizable=0;points=[];" parent="w00eylqivsFtThTXuI4Y-49" vertex="1" connectable="0">
          <mxGeometry x="-0.1765" relative="1" as="geometry">
            <mxPoint as="offset" />
          </mxGeometry>
        </mxCell>
        <mxCell id="w00eylqivsFtThTXuI4Y-42" value="user and password&lt;div&gt;= data akun&lt;/div&gt;" style="rhombus;whiteSpace=wrap;html=1;" parent="1" vertex="1">
          <mxGeometry x="520" y="710" width="100" height="100" as="geometry" />
        </mxCell>
        <mxCell id="w00eylqivsFtThTXuI4Y-46" value="" style="edgeStyle=orthogonalEdgeStyle;rounded=0;orthogonalLoop=1;jettySize=auto;html=1;" parent="1" source="w00eylqivsFtThTXuI4Y-44" target="9306NAeqGHNyqq7dqVHE-8" edge="1">
          <mxGeometry relative="1" as="geometry" />
        </mxCell>
        <mxCell id="w00eylqivsFtThTXuI4Y-44" value="output&lt;div&gt;&amp;nbsp;Selamat datang admin!&lt;/div&gt;" style="shape=parallelogram;perimeter=parallelogramPerimeter;whiteSpace=wrap;html=1;fixedSize=1;" parent="1" vertex="1">
          <mxGeometry x="660" y="730" width="120" height="60" as="geometry" />
        </mxCell>
        <mxCell id="w00eylqivsFtThTXuI4Y-48" value="output&lt;div&gt;login gagal,percobaan login hanya 3x&lt;/div&gt;" style="shape=parallelogram;perimeter=parallelogramPerimeter;whiteSpace=wrap;html=1;fixedSize=1;" parent="1" vertex="1">
          <mxGeometry x="360" y="731" width="120" height="60" as="geometry" />
        </mxCell>
        <mxCell id="w00eylqivsFtThTXuI4Y-51" value="" style="endArrow=classic;html=1;rounded=0;entryX=0.5;entryY=1;entryDx=0;entryDy=0;" parent="1" target="w00eylqivsFtThTXuI4Y-33" edge="1">
          <mxGeometry width="50" height="50" relative="1" as="geometry">
            <mxPoint x="420" y="730" as="sourcePoint" />
            <mxPoint x="470" y="650" as="targetPoint" />
          </mxGeometry>
        </mxCell>
        <mxCell id="w00eylqivsFtThTXuI4Y-55" value="" style="edgeStyle=orthogonalEdgeStyle;rounded=0;orthogonalLoop=1;jettySize=auto;html=1;" parent="1" source="w00eylqivsFtThTXuI4Y-56" target="w00eylqivsFtThTXuI4Y-58" edge="1">
          <mxGeometry relative="1" as="geometry" />
        </mxCell>
        <mxCell id="w00eylqivsFtThTXuI4Y-56" value="input&amp;nbsp;&lt;div&gt;username&lt;/div&gt;" style="shape=parallelogram;perimeter=parallelogramPerimeter;whiteSpace=wrap;html=1;fixedSize=1;" parent="1" vertex="1">
          <mxGeometry x="365" y="925" width="120" height="60" as="geometry" />
        </mxCell>
        <mxCell id="w00eylqivsFtThTXuI4Y-57" value="" style="edgeStyle=orthogonalEdgeStyle;rounded=0;orthogonalLoop=1;jettySize=auto;html=1;" parent="1" source="w00eylqivsFtThTXuI4Y-58" target="w00eylqivsFtThTXuI4Y-60" edge="1">
          <mxGeometry relative="1" as="geometry" />
        </mxCell>
        <mxCell id="w00eylqivsFtThTXuI4Y-58" value="input&amp;nbsp;&lt;div&gt;password&lt;/div&gt;" style="shape=parallelogram;perimeter=parallelogramPerimeter;whiteSpace=wrap;html=1;fixedSize=1;" parent="1" vertex="1">
          <mxGeometry x="520" y="925" width="120" height="60" as="geometry" />
        </mxCell>
        <mxCell id="w00eylqivsFtThTXuI4Y-59" value="" style="edgeStyle=orthogonalEdgeStyle;rounded=0;orthogonalLoop=1;jettySize=auto;html=1;" parent="1" source="w00eylqivsFtThTXuI4Y-60" target="w00eylqivsFtThTXuI4Y-65" edge="1">
          <mxGeometry relative="1" as="geometry" />
        </mxCell>
        <mxCell id="w00eylqivsFtThTXuI4Y-60" value="data&amp;nbsp;&lt;div&gt;akun&lt;/div&gt;" style="shape=cylinder3;whiteSpace=wrap;html=1;boundedLbl=1;backgroundOutline=1;size=15;" parent="1" vertex="1">
          <mxGeometry x="550.46" y="1020" width="60" height="80" as="geometry" />
        </mxCell>
        <mxCell id="w00eylqivsFtThTXuI4Y-61" value="" style="edgeStyle=orthogonalEdgeStyle;rounded=0;orthogonalLoop=1;jettySize=auto;html=1;" parent="1" source="w00eylqivsFtThTXuI4Y-65" target="w00eylqivsFtThTXuI4Y-67" edge="1">
          <mxGeometry relative="1" as="geometry" />
        </mxCell>
        <mxCell id="w00eylqivsFtThTXuI4Y-62" value="True" style="edgeLabel;html=1;align=center;verticalAlign=middle;resizable=0;points=[];" parent="w00eylqivsFtThTXuI4Y-61" vertex="1" connectable="0">
          <mxGeometry x="-0.0267" y="-1" relative="1" as="geometry">
            <mxPoint as="offset" />
          </mxGeometry>
        </mxCell>
        <mxCell id="w00eylqivsFtThTXuI4Y-63" value="" style="edgeStyle=orthogonalEdgeStyle;rounded=0;orthogonalLoop=1;jettySize=auto;html=1;" parent="1" source="w00eylqivsFtThTXuI4Y-65" target="w00eylqivsFtThTXuI4Y-68" edge="1">
          <mxGeometry relative="1" as="geometry" />
        </mxCell>
        <mxCell id="w00eylqivsFtThTXuI4Y-64" value="False" style="edgeLabel;html=1;align=center;verticalAlign=middle;resizable=0;points=[];" parent="w00eylqivsFtThTXuI4Y-63" vertex="1" connectable="0">
          <mxGeometry x="-0.1765" relative="1" as="geometry">
            <mxPoint as="offset" />
          </mxGeometry>
        </mxCell>
        <mxCell id="w00eylqivsFtThTXuI4Y-65" value="user and password&lt;div&gt;= data akun&lt;/div&gt;" style="rhombus;whiteSpace=wrap;html=1;" parent="1" vertex="1">
          <mxGeometry x="530.46" y="1140" width="100" height="100" as="geometry" />
        </mxCell>
        <mxCell id="w00eylqivsFtThTXuI4Y-66" value="" style="edgeStyle=orthogonalEdgeStyle;rounded=0;orthogonalLoop=1;jettySize=auto;html=1;" parent="1" source="w00eylqivsFtThTXuI4Y-67" edge="1">
          <mxGeometry relative="1" as="geometry">
            <mxPoint x="830.46" y="1190" as="targetPoint" />
          </mxGeometry>
        </mxCell>
        <mxCell id="w00eylqivsFtThTXuI4Y-67" value="output&lt;div&gt;&amp;nbsp;Selamat datang&amp;nbsp;&lt;/div&gt;&lt;div&gt;user!&lt;/div&gt;" style="shape=parallelogram;perimeter=parallelogramPerimeter;whiteSpace=wrap;html=1;fixedSize=1;" parent="1" vertex="1">
          <mxGeometry x="670.46" y="1160" width="120" height="60" as="geometry" />
        </mxCell>
        <mxCell id="w00eylqivsFtThTXuI4Y-68" value="output&lt;div&gt;login gagal,percobaan login hanya 3x&lt;/div&gt;" style="shape=parallelogram;perimeter=parallelogramPerimeter;whiteSpace=wrap;html=1;fixedSize=1;" parent="1" vertex="1">
          <mxGeometry x="360" y="1160" width="120" height="60" as="geometry" />
        </mxCell>
        <mxCell id="w00eylqivsFtThTXuI4Y-69" value="" style="endArrow=classic;html=1;rounded=0;entryX=0.5;entryY=1;entryDx=0;entryDy=0;" parent="1" target="w00eylqivsFtThTXuI4Y-56" edge="1">
          <mxGeometry width="50" height="50" relative="1" as="geometry">
            <mxPoint x="420" y="1154" as="sourcePoint" />
            <mxPoint x="470" y="1074" as="targetPoint" />
          </mxGeometry>
        </mxCell>
        <mxCell id="CITxqDvbWVBlNtM9Zf33-7" value="" style="edgeStyle=orthogonalEdgeStyle;rounded=0;orthogonalLoop=1;jettySize=auto;html=1;" parent="1" source="CITxqDvbWVBlNtM9Zf33-4" target="CITxqDvbWVBlNtM9Zf33-6" edge="1">
          <mxGeometry relative="1" as="geometry" />
        </mxCell>
        <mxCell id="CITxqDvbWVBlNtM9Zf33-4" value="output&lt;div&gt;&lt;div&gt;1. Lihat Semua Kamar&lt;/div&gt;&lt;div&gt;2. Lihat Kamar Terbooking&lt;/div&gt;&lt;/div&gt;" style="shape=parallelogram;perimeter=parallelogramPerimeter;whiteSpace=wrap;html=1;fixedSize=1;" parent="1" vertex="1">
          <mxGeometry x="2010" y="1055" width="140" height="70" as="geometry" />
        </mxCell>
        <mxCell id="CITxqDvbWVBlNtM9Zf33-10" value="" style="edgeStyle=orthogonalEdgeStyle;rounded=0;orthogonalLoop=1;jettySize=auto;html=1;" parent="1" source="CITxqDvbWVBlNtM9Zf33-6" target="CITxqDvbWVBlNtM9Zf33-9" edge="1">
          <mxGeometry relative="1" as="geometry" />
        </mxCell>
        <mxCell id="CITxqDvbWVBlNtM9Zf33-6" value="input&amp;nbsp;&lt;div&gt;pilihan&lt;/div&gt;" style="shape=parallelogram;perimeter=parallelogramPerimeter;whiteSpace=wrap;html=1;fixedSize=1;" parent="1" vertex="1">
          <mxGeometry x="2170" y="1055" width="140" height="70" as="geometry" />
        </mxCell>
        <mxCell id="CITxqDvbWVBlNtM9Zf33-11" value="" style="edgeStyle=orthogonalEdgeStyle;rounded=0;orthogonalLoop=1;jettySize=auto;html=1;" parent="1" source="CITxqDvbWVBlNtM9Zf33-9" target="9306NAeqGHNyqq7dqVHE-79" edge="1">
          <mxGeometry relative="1" as="geometry">
            <Array as="points">
              <mxPoint x="2390" y="990" />
            </Array>
          </mxGeometry>
        </mxCell>
        <mxCell id="CITxqDvbWVBlNtM9Zf33-12" value="Lihat semua kamar" style="edgeLabel;html=1;align=center;verticalAlign=middle;resizable=0;points=[];" parent="CITxqDvbWVBlNtM9Zf33-11" vertex="1" connectable="0">
          <mxGeometry x="0.0333" relative="1" as="geometry">
            <mxPoint as="offset" />
          </mxGeometry>
        </mxCell>
        <mxCell id="CITxqDvbWVBlNtM9Zf33-24" value="" style="edgeStyle=orthogonalEdgeStyle;rounded=0;orthogonalLoop=1;jettySize=auto;html=1;entryX=0;entryY=0.5;entryDx=0;entryDy=0;entryPerimeter=0;" parent="1" source="CITxqDvbWVBlNtM9Zf33-9" target="CITxqDvbWVBlNtM9Zf33-23" edge="1">
          <mxGeometry relative="1" as="geometry">
            <Array as="points">
              <mxPoint x="2390" y="1230" />
            </Array>
          </mxGeometry>
        </mxCell>
        <mxCell id="CITxqDvbWVBlNtM9Zf33-25" value="Lihat kamar booking" style="edgeLabel;html=1;align=center;verticalAlign=middle;resizable=0;points=[];" parent="CITxqDvbWVBlNtM9Zf33-24" vertex="1" connectable="0">
          <mxGeometry x="0.299" y="-1" relative="1" as="geometry">
            <mxPoint as="offset" />
          </mxGeometry>
        </mxCell>
        <mxCell id="CITxqDvbWVBlNtM9Zf33-9" value="pilihan" style="rhombus;whiteSpace=wrap;html=1;" parent="1" vertex="1">
          <mxGeometry x="2350" y="1050" width="80" height="80" as="geometry" />
        </mxCell>
        <mxCell id="CITxqDvbWVBlNtM9Zf33-16" value="" style="edgeStyle=orthogonalEdgeStyle;rounded=0;orthogonalLoop=1;jettySize=auto;html=1;entryX=0.107;entryY=0.417;entryDx=0;entryDy=0;entryPerimeter=0;exitX=0.5;exitY=0.063;exitDx=0;exitDy=0;exitPerimeter=0;" parent="1" source="CITxqDvbWVBlNtM9Zf33-13" target="9306NAeqGHNyqq7dqVHE-82" edge="1">
          <mxGeometry relative="1" as="geometry">
            <mxPoint x="2620" y="975" as="sourcePoint" />
            <mxPoint x="2639.9999999999995" y="910" as="targetPoint" />
            <Array as="points">
              <mxPoint x="2640" y="890" />
              <mxPoint x="2703" y="890" />
            </Array>
          </mxGeometry>
        </mxCell>
        <mxCell id="CITxqDvbWVBlNtM9Zf33-17" value="True" style="edgeLabel;html=1;align=center;verticalAlign=middle;resizable=0;points=[];" parent="CITxqDvbWVBlNtM9Zf33-16" vertex="1" connectable="0">
          <mxGeometry x="0.2268" y="-1" relative="1" as="geometry">
            <mxPoint as="offset" />
          </mxGeometry>
        </mxCell>
        <mxCell id="CITxqDvbWVBlNtM9Zf33-21" value="" style="edgeStyle=orthogonalEdgeStyle;rounded=0;orthogonalLoop=1;jettySize=auto;html=1;" parent="1" source="CITxqDvbWVBlNtM9Zf33-13" target="CITxqDvbWVBlNtM9Zf33-19" edge="1">
          <mxGeometry relative="1" as="geometry">
            <Array as="points">
              <mxPoint x="2640" y="1075" />
            </Array>
          </mxGeometry>
        </mxCell>
        <mxCell id="CITxqDvbWVBlNtM9Zf33-22" value="False" style="edgeLabel;html=1;align=center;verticalAlign=middle;resizable=0;points=[];" parent="CITxqDvbWVBlNtM9Zf33-21" vertex="1" connectable="0">
          <mxGeometry x="0.307" relative="1" as="geometry">
            <mxPoint as="offset" />
          </mxGeometry>
        </mxCell>
        <mxCell id="CITxqDvbWVBlNtM9Zf33-13" value="jika data kamar ada" style="rhombus;whiteSpace=wrap;html=1;" parent="1" vertex="1">
          <mxGeometry x="2600" y="945" width="80" height="80" as="geometry" />
        </mxCell>
        <mxCell id="CITxqDvbWVBlNtM9Zf33-18" value="" style="edgeStyle=orthogonalEdgeStyle;rounded=0;orthogonalLoop=1;jettySize=auto;html=1;" parent="1" source="CITxqDvbWVBlNtM9Zf33-19" target="CITxqDvbWVBlNtM9Zf33-20" edge="1">
          <mxGeometry relative="1" as="geometry" />
        </mxCell>
        <mxCell id="CITxqDvbWVBlNtM9Zf33-19" value="output&lt;div&gt;menampilkan&amp;nbsp;&lt;/div&gt;&lt;div&gt;data kamar&lt;/div&gt;" style="shape=parallelogram;perimeter=parallelogramPerimeter;whiteSpace=wrap;html=1;fixedSize=1;" parent="1" vertex="1">
          <mxGeometry x="2700" y="1045" width="120" height="60" as="geometry" />
        </mxCell>
        <mxCell id="CITxqDvbWVBlNtM9Zf33-20" value="" style="ellipse;whiteSpace=wrap;html=1;fillColor=#d5e8d4;strokeColor=#82b366;" parent="1" vertex="1">
          <mxGeometry x="2840" y="1050" width="50" height="50" as="geometry" />
        </mxCell>
        <mxCell id="CITxqDvbWVBlNtM9Zf33-37" value="" style="edgeStyle=orthogonalEdgeStyle;rounded=0;orthogonalLoop=1;jettySize=auto;html=1;" parent="1" source="CITxqDvbWVBlNtM9Zf33-23" target="CITxqDvbWVBlNtM9Zf33-33" edge="1">
          <mxGeometry relative="1" as="geometry" />
        </mxCell>
        <mxCell id="CITxqDvbWVBlNtM9Zf33-23" value="data kamar" style="shape=cylinder3;whiteSpace=wrap;html=1;boundedLbl=1;backgroundOutline=1;size=15;" parent="1" vertex="1">
          <mxGeometry x="2510" y="1189.7" width="60" height="80" as="geometry" />
        </mxCell>
        <mxCell id="CITxqDvbWVBlNtM9Zf33-26" value="" style="edgeStyle=orthogonalEdgeStyle;rounded=0;orthogonalLoop=1;jettySize=auto;html=1;" parent="1" source="CITxqDvbWVBlNtM9Zf33-27" target="CITxqDvbWVBlNtM9Zf33-28" edge="1">
          <mxGeometry relative="1" as="geometry" />
        </mxCell>
        <mxCell id="CITxqDvbWVBlNtM9Zf33-27" value="output&lt;div&gt;menampilkan data kamar yang terbooking&lt;/div&gt;" style="shape=parallelogram;perimeter=parallelogramPerimeter;whiteSpace=wrap;html=1;fixedSize=1;" parent="1" vertex="1">
          <mxGeometry x="2700" y="1129.7" width="120" height="60" as="geometry" />
        </mxCell>
        <mxCell id="CITxqDvbWVBlNtM9Zf33-28" value="" style="ellipse;whiteSpace=wrap;html=1;fillColor=#d5e8d4;strokeColor=#82b366;" parent="1" vertex="1">
          <mxGeometry x="2840" y="1135" width="50" height="50" as="geometry" />
        </mxCell>
        <mxCell id="CITxqDvbWVBlNtM9Zf33-29" value="" style="edgeStyle=orthogonalEdgeStyle;rounded=0;orthogonalLoop=1;jettySize=auto;html=1;entryX=0.107;entryY=0.417;entryDx=0;entryDy=0;entryPerimeter=0;exitX=0.5;exitY=0.063;exitDx=0;exitDy=0;exitPerimeter=0;" parent="1" source="CITxqDvbWVBlNtM9Zf33-33" target="CITxqDvbWVBlNtM9Zf33-27" edge="1">
          <mxGeometry relative="1" as="geometry">
            <mxPoint x="2630" y="1190" as="sourcePoint" />
            <mxPoint x="2649.9999999999995" y="1125" as="targetPoint" />
            <Array as="points">
              <mxPoint x="2650" y="1155" />
            </Array>
          </mxGeometry>
        </mxCell>
        <mxCell id="CITxqDvbWVBlNtM9Zf33-30" value="True" style="edgeLabel;html=1;align=center;verticalAlign=middle;resizable=0;points=[];" parent="CITxqDvbWVBlNtM9Zf33-29" vertex="1" connectable="0">
          <mxGeometry x="0.2268" y="-1" relative="1" as="geometry">
            <mxPoint as="offset" />
          </mxGeometry>
        </mxCell>
        <mxCell id="CITxqDvbWVBlNtM9Zf33-31" value="" style="edgeStyle=orthogonalEdgeStyle;rounded=0;orthogonalLoop=1;jettySize=auto;html=1;" parent="1" source="CITxqDvbWVBlNtM9Zf33-33" target="CITxqDvbWVBlNtM9Zf33-35" edge="1">
          <mxGeometry relative="1" as="geometry">
            <Array as="points">
              <mxPoint x="2650" y="1305" />
            </Array>
          </mxGeometry>
        </mxCell>
        <mxCell id="CITxqDvbWVBlNtM9Zf33-32" value="False" style="edgeLabel;html=1;align=center;verticalAlign=middle;resizable=0;points=[];" parent="CITxqDvbWVBlNtM9Zf33-31" vertex="1" connectable="0">
          <mxGeometry x="0.307" relative="1" as="geometry">
            <mxPoint as="offset" />
          </mxGeometry>
        </mxCell>
        <mxCell id="CITxqDvbWVBlNtM9Zf33-33" value="jika kamar terbooking ada di data kamar" style="rhombus;whiteSpace=wrap;html=1;" parent="1" vertex="1">
          <mxGeometry x="2600" y="1175" width="100" height="110" as="geometry" />
        </mxCell>
        <mxCell id="CITxqDvbWVBlNtM9Zf33-34" value="" style="edgeStyle=orthogonalEdgeStyle;rounded=0;orthogonalLoop=1;jettySize=auto;html=1;" parent="1" source="CITxqDvbWVBlNtM9Zf33-35" target="CITxqDvbWVBlNtM9Zf33-36" edge="1">
          <mxGeometry relative="1" as="geometry" />
        </mxCell>
        <mxCell id="CITxqDvbWVBlNtM9Zf33-35" value="output&lt;div&gt;Tidak ada kamar yang sedang&amp;nbsp;&lt;/div&gt;&lt;div&gt;dipesan.&lt;br&gt;&lt;/div&gt;" style="shape=parallelogram;perimeter=parallelogramPerimeter;whiteSpace=wrap;html=1;fixedSize=1;" parent="1" vertex="1">
          <mxGeometry x="2700" y="1274.7" width="120" height="60" as="geometry" />
        </mxCell>
        <mxCell id="CITxqDvbWVBlNtM9Zf33-36" value="" style="ellipse;whiteSpace=wrap;html=1;fillColor=#d5e8d4;strokeColor=#82b366;" parent="1" vertex="1">
          <mxGeometry x="2830" y="1279.7" width="50" height="50" as="geometry" />
        </mxCell>
      </root>
    </mxGraphModel>
  </diagram>
</mxfile>
